<?xml version="1.0" encoding="utf-8"?>
<!-- Generator: Adobe Illustrator 21.0.0, SVG Export Plug-In . SVG Version: 6.00 Build 0)  -->
<svg version="1.1" id="Layer_1" xmlns="http://www.w3.org/2000/svg" xmlns:xlink="http://www.w3.org/1999/xlink" x="0px" y="0px"
	 viewBox="0 0 512 512" style="enable-background:new 0 0 512 512;" xml:space="preserve">
<path d="M432.1,249.1L432.1,249.1l-31.8,0H144.9l179.4-121l-54.6,92.7l0,0c-0.2,0.4-0.4,0.9-0.4,1.4c0,1.6,1.3,2.9,2.9,2.9l0,0h21.7
	l0,0h51.5c0.3,0,0.6,0,0.9,0c27.7,0,50.1-22.4,50.1-50.1c0-25.5-19.1-46.6-43.7-49.7l36.6-62.2c0.3-0.5,0.5-1,0.5-1.6
	c0-1.6-1.3-2.9-2.9-2.9c-0.6,0-1.2,0.2-1.6,0.5v0l-33.8,22.8l0,0l-63.6,42.9H142.3l0,0c-1.5,0-2.8,1.2-2.9,2.7v0.1v20.2V225
	l-62,41.8c-0.9,0.5-1.4,1.4-1.4,2.5c0,1.6,1.3,2.9,2.9,2.9c0,0,0,0,0,0h31.8l0.1,0h255.3L200.3,383.9l49-83.2
	c0.3-0.5,0.6-1.1,0.6-1.7c0-1.5-1.2-2.8-2.8-2.9l0,0H142.3l0,0c-1.6,0-2.9,1.3-2.9,2.9h0v94.4h0c0,1.6,1.3,2.8,2.8,2.9h24l-31,52.6
	h0c-0.3,0.5-0.5,1-0.5,1.6c0,1.6,1.3,2.9,2.9,2.9c0.6,0,1.2-0.2,1.7-0.5l83.7-56.5c19.5,0,122.7,0,123.2,0
	c27.7,0,50.1-22.4,50.1-50.1c0-20.8-12.6-38.6-30.6-46.2l67.6-45.6c0.9-0.5,1.6-1.4,1.6-2.6C434.9,250.4,433.7,249.1,432.1,249.1z
	 M346,147.9c0.1,0,0.2,0,0.3,0c14.9,0,27,12.1,27,27c0,14.9-12.1,27-27,27c-0.1,0-0.2,0-0.3,0l-38.5,0l31.9-54.1H346z M162.5,147.9
	h91.2l-91.2,61.5V147.9z M162.5,373.3v-54.1h49.2l-31.8,54.1H162.5z M373.4,346.3c0,14.9-12.1,27-27,27v0h-89l80.1-54h8.9
	C361.3,319.3,373.4,331.3,373.4,346.3z"/>
</svg>
